<svg xmlns="http://www.w3.org/2000/svg" viewBox="0 0 720 120" width="720" height="120" role="img" aria-label="configs">
  <defs>
    <linearGradient id="g" x1="0" y1="0" x2="0" y2="1">
      <stop offset="0%" stop-color="#7c3aed" stop-opacity="0.35"/>
      <stop offset="100%" stop-color="#7c3aed" stop-opacity="0.02"/>
    </linearGradient>
  </defs>
  <polygon points="0,120 0.0,14.5 17.6,14.4 35.1,12.2 52.7,11.4 70.2,13.5 87.8,8.0 105.4,12.6 122.9,13.6 140.5,11.5 158.0,10.4 175.6,14.0 193.2,12.7 210.7,11.4 228.3,110.9 245.9,110.9 263.4,108.0 281.0,108.5 298.5,108.5 316.1,108.5 333.7,108.2 351.2,108.4 368.8,107.7 386.3,108.7 403.9,111.2 421.5,111.8 439.0,111.8 456.6,111.7 474.1,111.7 491.7,111.8 509.3,111.6 526.8,110.7 544.4,111.4 562.0,111.8 579.5,111.7 597.1,110.7 614.6,110.7 632.2,111.2 649.8,112.0 667.3,111.9 684.9,112.0 702.4,112.0 720.0,111.6 720,120" fill="#7c3aed" opacity="0.25"/>
  <polygon points="0,120 0.0,14.5 17.6,14.4 35.1,12.2 52.7,11.4 70.2,13.5 87.8,8.0 105.4,12.6 122.9,13.6 140.5,11.5 158.0,10.4 175.6,14.0 193.2,12.7 210.7,11.4 228.3,110.9 245.9,110.9 263.4,108.0 281.0,108.5 298.5,108.5 316.1,108.5 333.7,108.2 351.2,108.4 368.8,107.7 386.3,108.7 403.9,111.2 421.5,111.8 439.0,111.8 456.6,111.7 474.1,111.7 491.7,111.8 509.3,111.6 526.8,110.7 544.4,111.4 562.0,111.8 579.5,111.7 597.1,110.7 614.6,110.7 632.2,111.2 649.8,112.0 667.3,111.9 684.9,112.0 702.4,112.0 720.0,111.6 720,120" fill="url(#g)"/>
  <polyline points="0.0,14.5 17.6,14.4 35.1,12.2 52.7,11.4 70.2,13.5 87.8,8.0 105.4,12.6 122.9,13.6 140.5,11.5 158.0,10.4 175.6,14.0 193.2,12.7 210.7,11.4 228.3,110.9 245.9,110.9 263.4,108.0 281.0,108.5 298.5,108.5 316.1,108.5 333.7,108.2 351.2,108.4 368.8,107.7 386.3,108.7 403.9,111.2 421.5,111.8 439.0,111.8 456.6,111.7 474.1,111.7 491.7,111.8 509.3,111.6 526.8,110.7 544.4,111.4 562.0,111.8 579.5,111.7 597.1,110.7 614.6,110.7 632.2,111.2 649.8,112.0 667.3,111.9 684.9,112.0 702.4,112.0 720.0,111.6" fill="none" stroke="#7c3aed" stroke-width="2.5" stroke-linejoin="round" stroke-linecap="round"/>
  <circle cx="720.0" cy="111.6" r="4" fill="#7c3aed"/>
  <text x="8" y="18" font-family="monospace" font-size="12" fill="#7c3aed">configs 506</text>
</svg>
