<svg xmlns="http://www.w3.org/2000/svg" viewBox="0 0 720 120" width="720" height="120" role="img" aria-label="configs">
  <defs>
    <linearGradient id="g" x1="0" y1="0" x2="0" y2="1">
      <stop offset="0%" stop-color="#7c3aed" stop-opacity="0.35"/>
      <stop offset="100%" stop-color="#7c3aed" stop-opacity="0.02"/>
    </linearGradient>
  </defs>
  <polygon points="0,120 0.0,112.0 65.5,109.1 130.9,75.6 196.4,62.5 261.8,95.2 327.3,8.0 392.7,81.5 458.2,96.9 523.6,64.1 589.1,46.7 654.5,104.0 720.0,82.5 720,120" fill="#7c3aed" opacity="0.25"/>
  <polygon points="0,120 0.0,112.0 65.5,109.1 130.9,75.6 196.4,62.5 261.8,95.2 327.3,8.0 392.7,81.5 458.2,96.9 523.6,64.1 589.1,46.7 654.5,104.0 720.0,82.5 720,120" fill="url(#g)"/>
  <polyline points="0.0,112.0 65.5,109.1 130.9,75.6 196.4,62.5 261.8,95.2 327.3,8.0 392.7,81.5 458.2,96.9 523.6,64.1 589.1,46.7 654.5,104.0 720.0,82.5" fill="none" stroke="#7c3aed" stroke-width="2.5" stroke-linejoin="round" stroke-linecap="round"/>
  <circle cx="720.0" cy="82.5" r="4" fill="#7c3aed"/>
  <text x="8" y="18" font-family="monospace" font-size="12" fill="#7c3aed">configs 8192</text>
</svg>
