<svg xmlns="http://www.w3.org/2000/svg" viewBox="0 0 720 120" width="720" height="120" role="img" aria-label="configs">
  <defs>
    <linearGradient id="g" x1="0" y1="0" x2="0" y2="1">
      <stop offset="0%" stop-color="#7c3aed" stop-opacity="0.35"/>
      <stop offset="100%" stop-color="#7c3aed" stop-opacity="0.02"/>
    </linearGradient>
  </defs>
  <polygon points="0,120 0.0,14.5 23.2,14.4 46.5,12.3 69.7,11.4 92.9,13.5 116.1,8.0 139.4,12.6 162.6,13.6 185.8,11.5 209.0,10.4 232.3,14.0 255.5,12.7 278.7,11.5 301.9,111.0 325.2,111.0 348.4,108.2 371.6,108.7 394.8,108.7 418.1,108.7 441.3,108.4 464.5,108.5 487.7,107.9 511.0,108.9 534.2,111.4 557.4,112.0 580.6,112.0 603.9,111.9 627.1,111.9 650.3,111.9 673.5,111.7 696.8,110.9 720.0,111.6 720,120" fill="#7c3aed" opacity="0.25"/>
  <polygon points="0,120 0.0,14.5 23.2,14.4 46.5,12.3 69.7,11.4 92.9,13.5 116.1,8.0 139.4,12.6 162.6,13.6 185.8,11.5 209.0,10.4 232.3,14.0 255.5,12.7 278.7,11.5 301.9,111.0 325.2,111.0 348.4,108.2 371.6,108.7 394.8,108.7 418.1,108.7 441.3,108.4 464.5,108.5 487.7,107.9 511.0,108.9 534.2,111.4 557.4,112.0 580.6,112.0 603.9,111.9 627.1,111.9 650.3,111.9 673.5,111.7 696.8,110.9 720.0,111.6 720,120" fill="url(#g)"/>
  <polyline points="0.0,14.5 23.2,14.4 46.5,12.3 69.7,11.4 92.9,13.5 116.1,8.0 139.4,12.6 162.6,13.6 185.8,11.5 209.0,10.4 232.3,14.0 255.5,12.7 278.7,11.5 301.9,111.0 325.2,111.0 348.4,108.2 371.6,108.7 394.8,108.7 418.1,108.7 441.3,108.4 464.5,108.5 487.7,107.9 511.0,108.9 534.2,111.4 557.4,112.0 580.6,112.0 603.9,111.9 627.1,111.9 650.3,111.9 673.5,111.7 696.8,110.9 720.0,111.6" fill="none" stroke="#7c3aed" stroke-width="2.5" stroke-linejoin="round" stroke-linecap="round"/>
  <circle cx="720.0" cy="111.6" r="4" fill="#7c3aed"/>
  <text x="8" y="18" font-family="monospace" font-size="12" fill="#7c3aed">configs 518</text>
</svg>
