<svg xmlns="http://www.w3.org/2000/svg" viewBox="0 0 720 120" width="720" height="120" role="img" aria-label="configs">
  <defs>
    <linearGradient id="g" x1="0" y1="0" x2="0" y2="1">
      <stop offset="0%" stop-color="#7c3aed" stop-opacity="0.35"/>
      <stop offset="100%" stop-color="#7c3aed" stop-opacity="0.02"/>
    </linearGradient>
  </defs>
  <polygon points="0,120 0.0,14.3 7.6,14.2 15.2,12.1 22.7,11.3 30.3,13.3 37.9,8.0 45.5,12.5 53.1,13.4 60.6,11.4 68.2,10.4 75.8,13.8 83.4,12.5 90.9,11.3 98.5,107.7 106.1,107.7 113.7,104.9 121.3,105.4 128.8,105.4 136.4,105.4 144.0,105.2 151.6,105.3 159.2,104.6 166.7,105.6 174.3,108.0 181.9,108.6 189.5,108.6 197.1,108.5 204.6,108.5 212.2,108.6 219.8,108.4 227.4,107.6 234.9,108.2 242.5,108.6 250.1,108.5 257.7,107.5 265.3,107.5 272.8,108.0 280.4,108.8 288.0,108.7 295.6,108.8 303.2,108.8 310.7,108.4 318.3,108.3 325.9,108.4 333.5,108.4 341.1,108.2 348.6,108.3 356.2,108.2 363.8,108.2 371.4,108.0 378.9,107.9 386.5,107.9 394.1,108.0 401.7,108.4 409.3,108.4 416.8,108.5 424.4,108.5 432.0,108.5 439.6,108.5 447.2,108.4 454.7,108.0 462.3,107.6 469.9,107.6 477.5,107.4 485.1,107.4 492.6,107.6 500.2,107.8 507.8,107.5 515.4,107.6 522.9,107.7 530.5,107.6 538.1,107.9 545.7,108.0 553.3,108.0 560.8,107.3 568.4,107.9 576.0,107.8 583.6,107.8 591.2,107.8 598.7,107.9 606.3,107.8 613.9,107.6 621.5,107.4 629.1,107.3 636.6,107.6 644.2,107.8 651.8,107.7 659.4,107.5 666.9,107.7 674.5,107.4 682.1,106.7 689.7,112.0 697.3,112.0 704.8,111.7 712.4,111.6 720.0,111.6 720,120" fill="#7c3aed" opacity="0.25"/>
  <polygon points="0,120 0.0,14.3 7.6,14.2 15.2,12.1 22.7,11.3 30.3,13.3 37.9,8.0 45.5,12.5 53.1,13.4 60.6,11.4 68.2,10.4 75.8,13.8 83.4,12.5 90.9,11.3 98.5,107.7 106.1,107.7 113.7,104.9 121.3,105.4 128.8,105.4 136.4,105.4 144.0,105.2 151.6,105.3 159.2,104.6 166.7,105.6 174.3,108.0 181.9,108.6 189.5,108.6 197.1,108.5 204.6,108.5 212.2,108.6 219.8,108.4 227.4,107.6 234.9,108.2 242.5,108.6 250.1,108.5 257.7,107.5 265.3,107.5 272.8,108.0 280.4,108.8 288.0,108.7 295.6,108.8 303.2,108.8 310.7,108.4 318.3,108.3 325.9,108.4 333.5,108.4 341.1,108.2 348.6,108.3 356.2,108.2 363.8,108.2 371.4,108.0 378.9,107.9 386.5,107.9 394.1,108.0 401.7,108.4 409.3,108.4 416.8,108.5 424.4,108.5 432.0,108.5 439.6,108.5 447.2,108.4 454.7,108.0 462.3,107.6 469.9,107.6 477.5,107.4 485.1,107.4 492.6,107.6 500.2,107.8 507.8,107.5 515.4,107.6 522.9,107.7 530.5,107.6 538.1,107.9 545.7,108.0 553.3,108.0 560.8,107.3 568.4,107.9 576.0,107.8 583.6,107.8 591.2,107.8 598.7,107.9 606.3,107.8 613.9,107.6 621.5,107.4 629.1,107.3 636.6,107.6 644.2,107.8 651.8,107.7 659.4,107.5 666.9,107.7 674.5,107.4 682.1,106.7 689.7,112.0 697.3,112.0 704.8,111.7 712.4,111.6 720.0,111.6 720,120" fill="url(#g)"/>
  <polyline points="0.0,14.3 7.6,14.2 15.2,12.1 22.7,11.3 30.3,13.3 37.9,8.0 45.5,12.5 53.1,13.4 60.6,11.4 68.2,10.4 75.8,13.8 83.4,12.5 90.9,11.3 98.5,107.7 106.1,107.7 113.7,104.9 121.3,105.4 128.8,105.4 136.4,105.4 144.0,105.2 151.6,105.3 159.2,104.6 166.7,105.6 174.3,108.0 181.9,108.6 189.5,108.6 197.1,108.5 204.6,108.5 212.2,108.6 219.8,108.4 227.4,107.6 234.9,108.2 242.5,108.6 250.1,108.5 257.7,107.5 265.3,107.5 272.8,108.0 280.4,108.8 288.0,108.7 295.6,108.8 303.2,108.8 310.7,108.4 318.3,108.3 325.9,108.4 333.5,108.4 341.1,108.2 348.6,108.3 356.2,108.2 363.8,108.2 371.4,108.0 378.9,107.9 386.5,107.9 394.1,108.0 401.7,108.4 409.3,108.4 416.8,108.5 424.4,108.5 432.0,108.5 439.6,108.5 447.2,108.4 454.7,108.0 462.3,107.6 469.9,107.6 477.5,107.4 485.1,107.4 492.6,107.6 500.2,107.8 507.8,107.5 515.4,107.6 522.9,107.7 530.5,107.6 538.1,107.9 545.7,108.0 553.3,108.0 560.8,107.3 568.4,107.9 576.0,107.8 583.6,107.8 591.2,107.8 598.7,107.9 606.3,107.8 613.9,107.6 621.5,107.4 629.1,107.3 636.6,107.6 644.2,107.8 651.8,107.7 659.4,107.5 666.9,107.7 674.5,107.4 682.1,106.7 689.7,112.0 697.3,112.0 704.8,111.7 712.4,111.6 720.0,111.6" fill="none" stroke="#7c3aed" stroke-width="2.5" stroke-linejoin="round" stroke-linecap="round"/>
  <circle cx="720.0" cy="111.6" r="4" fill="#7c3aed"/>
  <text x="8" y="18" font-family="monospace" font-size="12" fill="#7c3aed">configs 247</text>
</svg>
